<?xml version="1.0" encoding="UTF-8"?>
<svg id="Layer_2" data-name="Layer 2" xmlns="http://www.w3.org/2000/svg" viewBox="0 0 54.09 54.09">
  <g id="Layer_1-2" data-name="Layer 1">
    <g>
      <path d="M27.05,0C12.13,0,0,12.13,0,27.04s12.13,27.04,27.05,27.04,27.05-12.13,27.05-27.04S41.96,0,27.05,0ZM27.05,51.88c-13.69,0-24.83-11.14-24.83-24.83S13.35,2.21,27.05,2.21s24.83,11.14,24.83,24.83-11.14,24.83-24.83,24.83Z"></path>
      <rect x="25.94" y="20.22" width="2.21" height="19.31"></rect>
      <path d="M27.05,11.57c-1.2,0-2.18.98-2.18,2.18s.98,2.18,2.18,2.18,2.18-.98,2.18-2.18-.98-2.18-2.18-2.18Z"></path>
    </g>
  </g>
</svg>