<?xml version="1.0" encoding="UTF-8"?>
<svg id="Layer_2" data-name="Layer 2" xmlns="http://www.w3.org/2000/svg" viewBox="0 0 29.05 60.36">
  <g id="Layer_1-2" data-name="Layer 1">
    <g>
      <polygon points="28.07 10.81 26.5 9.24 22.51 13.22 22.51 1.57 20.3 1.57 20.3 13.21 16.33 9.24 14.77 10.81 21.41 17.45 28.07 10.81"></polygon>
      <polygon points="6.51 4.24 6.51 15.89 8.73 15.89 8.73 4.25 12.7 8.23 14.26 6.67 7.62 0 .96 6.66 2.53 8.23 6.51 4.24"></polygon>
      <path d="M0,19.39v36.58h2.21V21.6h24.62v32.05h-7.92v-3.58h2.56v-10.06c0-1.17-.45-2.25-1.27-3.04-.82-.82-1.9-1.27-3.04-1.27h-5.33c-1.17,0-2.25.45-3.04,1.27-.81.81-1.27,1.91-1.27,3.04v10.06h2.56v8.07H3.91v2.21h8.4v-12.5h-2.56v-7.84c0-.54.23-1.08.63-1.48.38-.4.89-.6,1.46-.6h5.33c.55,0,1.07.22,1.48.63.4.38.6.89.6,1.46v7.84h-2.56v8.01h12.35V19.39H0Z"></path>
      <path d="M19.5,29.34c0-2.76-2.24-5-5-5s-5,2.24-5,5,2.24,5,5,5,5-2.24,5-5ZM11.72,29.34c0-1.54,1.25-2.78,2.78-2.78s2.78,1.25,2.78,2.78-1.25,2.79-2.78,2.79-2.78-1.25-2.78-2.79Z"></path>
    </g>
  </g>
</svg>