<?xml version="1.0" encoding="UTF-8"?>
<svg id="Layer_2" data-name="Layer 2" xmlns="http://www.w3.org/2000/svg" viewBox="0 0 52.06 54.79">
  <g id="Layer_1-2" data-name="Layer 1">
    <g>
      <path d="M26.03,44.92l13.66-19.97c1.67-2.62,2.56-5.63,2.56-8.72C42.25,7.28,34.97,0,26.03,0S9.8,7.28,9.8,16.22c0,3.26.71,5.83,2.29,8.3l13.94,20.4ZM26.03,2.21c7.73,0,14.01,6.29,14.01,14.01,0,2.67-.76,5.27-2.19,7.5l-11.82,17.27-11.8-17.21-.25-.43c-1.36-2.13-1.97-4.33-1.97-7.14,0-7.72,6.29-14.01,14.01-14.01Z"></path>
      <path d="M26.03,23.61c3.92,0,7.11-3.19,7.11-7.11s-3.19-7.11-7.11-7.11-7.11,3.19-7.11,7.11,3.19,7.11,7.11,7.11ZM26.03,11.61c2.7,0,4.9,2.2,4.9,4.9s-2.2,4.9-4.9,4.9-4.9-2.2-4.9-4.9,2.2-4.9,4.9-4.9Z"></path>
      <polygon points="41.91 32.19 41.91 34.4 49.84 34.4 49.84 52.57 2.21 52.57 2.21 34.4 11.01 34.4 11.01 32.19 0 32.19 0 54.79 52.06 54.79 52.06 32.19 41.91 32.19"></polygon>
    </g>
  </g>
</svg>